<svg xmlns="http://www.w3.org/2000/svg" xmlns:xlink="http://www.w3.org/1999/xlink" width="875" zoomAndPan="magnify" viewBox="0 0 656.25 656.250002" height="875" preserveAspectRatio="xMidYMid meet" version="1.0"><path fill="#2354e6" d="M 328.007812 472.304688 C 325.640625 472.304688 323.273438 472.246094 320.90625 472.132812 C 318.539062 472.015625 316.175781 471.839844 313.820312 471.609375 C 311.460938 471.375 309.113281 471.085938 306.769531 470.738281 C 304.425781 470.390625 302.089844 469.988281 299.769531 469.523438 C 297.445312 469.0625 295.132812 468.542969 292.835938 467.96875 C 290.535156 467.394531 288.253906 466.761719 285.988281 466.074219 C 283.71875 465.386719 281.472656 464.644531 279.242188 463.84375 C 277.011719 463.046875 274.800781 462.195312 272.613281 461.289062 C 270.421875 460.382812 268.257812 459.421875 266.117188 458.410156 C 263.972656 457.398438 261.859375 456.332031 259.769531 455.214844 C 257.679688 454.101562 255.621094 452.933594 253.585938 451.714844 C 251.554688 450.496094 249.554688 449.230469 247.585938 447.914062 C 245.613281 446.597656 243.679688 445.234375 241.777344 443.824219 C 239.871094 442.414062 238.003906 440.957031 236.175781 439.453125 C 234.34375 437.953125 232.550781 436.40625 230.792969 434.8125 C 229.039062 433.222656 227.324219 431.589844 225.648438 429.914062 C 223.972656 428.242188 222.339844 426.527344 220.75 424.769531 C 219.15625 423.015625 217.609375 421.222656 216.109375 419.390625 C 214.605469 417.5625 213.148438 415.695312 211.738281 413.792969 C 210.324219 411.890625 208.960938 409.953125 207.644531 407.984375 C 206.328125 406.015625 205.0625 404.015625 203.84375 401.984375 C 202.625 399.949219 201.460938 397.890625 200.34375 395.800781 C 199.226562 393.710938 198.160156 391.597656 197.148438 389.457031 C 196.132812 387.316406 195.175781 385.152344 194.269531 382.960938 C 193.363281 380.773438 192.507812 378.566406 191.710938 376.335938 C 190.914062 374.105469 190.171875 371.855469 189.484375 369.589844 C 188.796875 367.324219 188.164062 365.039062 187.585938 362.742188 C 187.011719 360.445312 186.492188 358.136719 186.03125 355.8125 C 185.570312 353.488281 185.164062 351.15625 184.816406 348.8125 C 184.46875 346.46875 184.179688 344.121094 183.945312 341.761719 C 183.714844 339.40625 183.539062 337.042969 183.425781 334.679688 C 183.308594 332.3125 183.25 329.945312 183.25 327.578125 C 183.25 325.207031 183.308594 322.839844 183.425781 320.476562 C 183.539062 318.109375 183.714844 315.75 183.945312 313.390625 C 184.179688 311.035156 184.46875 308.683594 184.816406 306.339844 C 185.164062 303.996094 185.570312 301.664062 186.03125 299.339844 C 186.492188 297.019531 187.011719 294.707031 187.585938 292.410156 C 188.164062 290.113281 188.796875 287.832031 189.484375 285.5625 C 190.171875 283.296875 190.914062 281.050781 191.710938 278.820312 C 192.507812 276.589844 193.363281 274.378906 194.269531 272.191406 C 195.175781 270.003906 196.132812 267.839844 197.148438 265.695312 C 198.160156 263.554688 199.226562 261.441406 200.34375 259.351562 C 201.460938 257.261719 202.625 255.203125 203.84375 253.171875 C 205.0625 251.140625 206.328125 249.140625 207.644531 247.167969 C 208.960938 245.199219 210.324219 243.265625 211.738281 241.363281 C 213.148438 239.460938 214.605469 237.59375 216.109375 235.761719 C 217.609375 233.929688 219.15625 232.136719 220.75 230.382812 C 222.339844 228.628906 223.972656 226.914062 225.648438 225.238281 C 227.324219 223.5625 229.039062 221.929688 230.792969 220.339844 C 232.550781 218.75 234.34375 217.203125 236.175781 215.699219 C 238.003906 214.195312 239.871094 212.742188 241.777344 211.328125 C 243.679688 209.917969 245.613281 208.554688 247.585938 207.238281 C 249.554688 205.921875 251.554688 204.65625 253.585938 203.4375 C 255.621094 202.222656 257.679688 201.054688 259.769531 199.9375 C 261.859375 198.820312 263.972656 197.757812 266.117188 196.742188 C 268.257812 195.730469 270.421875 194.769531 272.613281 193.863281 C 274.800781 192.957031 277.011719 192.105469 279.242188 191.308594 C 281.472656 190.511719 283.71875 189.765625 285.988281 189.078125 C 288.253906 188.390625 290.535156 187.761719 292.835938 187.183594 C 295.132812 186.609375 297.445312 186.089844 299.769531 185.628906 C 302.089844 185.167969 304.425781 184.761719 306.769531 184.414062 C 309.113281 184.066406 311.460938 183.777344 313.820312 183.546875 C 316.175781 183.3125 318.539062 183.136719 320.90625 183.023438 C 323.273438 182.90625 325.640625 182.847656 328.007812 182.847656 L 328.007812 64.433594 C 323.703125 64.433594 319.398438 64.539062 315.09375 64.75 C 310.792969 64.960938 306.496094 65.277344 302.210938 65.699219 C 297.925781 66.121094 293.652344 66.648438 289.390625 67.28125 C 285.128906 67.914062 280.886719 68.648438 276.660156 69.488281 C 272.4375 70.328125 268.234375 71.273438 264.058594 72.320312 C 259.878906 73.367188 255.726562 74.515625 251.605469 75.765625 C 247.484375 77.015625 243.394531 78.363281 239.339844 79.816406 C 235.285156 81.265625 231.265625 82.816406 227.289062 84.464844 C 223.308594 86.113281 219.371094 87.855469 215.476562 89.699219 C 211.582031 91.539062 207.738281 93.476562 203.9375 95.503906 C 200.140625 97.535156 196.390625 99.65625 192.699219 101.871094 C 189.003906 104.085938 185.363281 106.386719 181.785156 108.78125 C 178.203125 111.171875 174.679688 113.652344 171.222656 116.21875 C 167.761719 118.785156 164.367188 121.433594 161.039062 124.164062 C 157.707031 126.894531 154.445312 129.707031 151.253906 132.601562 C 148.0625 135.492188 144.945312 138.460938 141.898438 141.507812 C 138.851562 144.550781 135.882812 147.667969 132.992188 150.859375 C 130.097656 154.050781 127.285156 157.3125 124.554688 160.640625 C 121.820312 163.96875 119.171875 167.363281 116.605469 170.824219 C 114.039062 174.28125 111.558594 177.800781 109.167969 181.382812 C 106.773438 184.964844 104.46875 188.601562 102.253906 192.292969 C 100.042969 195.988281 97.917969 199.734375 95.886719 203.53125 C 93.859375 207.328125 91.921875 211.175781 90.078125 215.070312 C 88.238281 218.960938 86.492188 222.898438 84.84375 226.875 C 83.195312 230.855469 81.648438 234.871094 80.195312 238.925781 C 78.746094 242.980469 77.394531 247.070312 76.144531 251.191406 C 74.894531 255.3125 73.746094 259.460938 72.699219 263.636719 C 71.652344 267.816406 70.707031 272.015625 69.867188 276.238281 C 69.027344 280.464844 68.289062 284.707031 67.660156 288.964844 C 67.027344 293.226562 66.5 297.5 66.078125 301.785156 C 65.65625 306.070312 65.339844 310.363281 65.128906 314.664062 C 64.914062 318.964844 64.808594 323.269531 64.808594 327.578125 C 64.808594 331.882812 64.914062 336.1875 65.128906 340.488281 C 65.339844 344.789062 65.65625 349.082031 66.078125 353.371094 C 66.5 357.65625 67.027344 361.929688 67.660156 366.1875 C 68.289062 370.449219 69.027344 374.691406 69.867188 378.914062 C 70.707031 383.136719 71.652344 387.339844 72.699219 391.515625 C 73.746094 395.691406 74.894531 399.84375 76.144531 403.964844 C 77.394531 408.085938 78.746094 412.171875 80.195312 416.226562 C 81.648438 420.28125 83.195312 424.300781 84.84375 428.277344 C 86.492188 432.257812 88.238281 436.191406 90.078125 440.085938 C 91.921875 443.976562 93.859375 447.824219 95.886719 451.621094 C 97.917969 455.417969 100.042969 459.164062 102.253906 462.859375 C 104.46875 466.554688 106.773438 470.191406 109.167969 473.773438 C 111.558594 477.351562 114.039062 480.871094 116.605469 484.332031 C 119.171875 487.789062 121.820312 491.183594 124.554688 494.511719 C 127.285156 497.84375 130.097656 501.101562 132.992188 504.292969 C 135.882812 507.484375 138.851562 510.601562 141.898438 513.648438 C 144.945312 516.691406 148.0625 519.660156 151.253906 522.554688 C 154.445312 525.445312 157.707031 528.257812 161.039062 530.988281 C 164.367188 533.722656 167.761719 536.371094 171.222656 538.9375 C 174.679688 541.5 178.203125 543.980469 181.785156 546.371094 C 185.363281 548.765625 189.003906 551.070312 192.699219 553.28125 C 196.390625 555.496094 200.140625 557.617188 203.9375 559.648438 C 207.738281 561.679688 211.582031 563.613281 215.476562 565.457031 C 219.371094 567.296875 223.308594 569.042969 227.289062 570.691406 C 231.265625 572.335938 235.285156 573.886719 239.339844 575.339844 C 243.394531 576.789062 247.484375 578.140625 251.605469 579.390625 C 255.726562 580.640625 259.878906 581.789062 264.058594 582.835938 C 268.234375 583.878906 272.4375 584.824219 276.660156 585.664062 C 280.886719 586.503906 285.128906 587.242188 289.390625 587.871094 C 293.652344 588.503906 297.925781 589.03125 302.210938 589.453125 C 306.496094 589.875 310.792969 590.191406 315.09375 590.402344 C 319.398438 590.613281 323.703125 590.71875 328.007812 590.71875 C 332.316406 590.71875 336.621094 590.613281 340.921875 590.402344 C 345.226562 590.191406 349.519531 589.875 353.808594 589.453125 C 358.09375 589.03125 362.367188 588.503906 366.628906 587.871094 C 370.890625 587.242188 375.132812 586.503906 379.355469 585.664062 C 383.582031 584.824219 387.78125 583.878906 391.960938 582.835938 C 396.140625 581.789062 400.289062 580.640625 404.410156 579.390625 C 408.535156 578.140625 412.621094 576.789062 416.679688 575.339844 C 420.734375 573.886719 424.75 572.335938 428.730469 570.691406 C 432.710938 569.042969 436.648438 567.296875 440.542969 565.457031 C 444.433594 563.613281 448.28125 561.679688 452.082031 559.648438 C 455.878906 557.617188 459.625 555.496094 463.320312 553.28125 C 467.015625 551.070312 470.652344 548.765625 474.234375 546.371094 C 477.816406 543.980469 481.335938 541.5 484.796875 538.9375 C 488.257812 536.371094 491.652344 533.722656 494.980469 530.988281 C 498.308594 528.257812 501.570312 525.445312 504.761719 522.554688 C 507.953125 519.660156 511.074219 516.691406 514.117188 513.648438 C 517.164062 510.601562 520.132812 507.484375 523.027344 504.292969 C 525.917969 501.101562 528.730469 497.84375 531.464844 494.511719 C 534.199219 491.183594 536.847656 487.789062 539.414062 484.332031 C 541.980469 480.871094 544.457031 477.351562 546.851562 473.773438 C 549.246094 470.191406 551.546875 466.554688 553.761719 462.859375 C 555.976562 459.164062 558.097656 455.417969 560.128906 451.621094 C 562.160156 447.824219 564.097656 443.976562 565.9375 440.085938 C 567.78125 436.191406 569.523438 432.257812 571.171875 428.277344 C 572.820312 424.300781 574.371094 420.28125 575.824219 416.226562 C 577.273438 412.171875 578.625 408.085938 579.875 403.964844 C 581.125 399.84375 582.273438 395.691406 583.320312 391.515625 C 584.367188 387.339844 585.3125 383.136719 586.152344 378.914062 C 586.992188 374.691406 587.726562 370.449219 588.359375 366.1875 C 588.992188 361.929688 589.519531 357.65625 589.941406 353.371094 C 590.363281 349.082031 590.679688 344.789062 590.890625 340.488281 C 591.101562 336.1875 591.207031 331.882812 591.207031 327.578125 L 472.769531 327.578125 C 472.769531 329.945312 472.710938 332.3125 472.59375 334.679688 C 472.476562 337.042969 472.304688 339.40625 472.070312 341.761719 C 471.839844 344.121094 471.550781 346.46875 471.203125 348.8125 C 470.855469 351.15625 470.449219 353.488281 469.988281 355.8125 C 469.523438 358.136719 469.003906 360.445312 468.429688 362.742188 C 467.855469 365.039062 467.222656 367.324219 466.535156 369.589844 C 465.847656 371.855469 465.105469 374.105469 464.304688 376.335938 C 463.507812 378.566406 462.65625 380.773438 461.75 382.960938 C 460.84375 385.152344 459.882812 387.316406 458.871094 389.457031 C 457.855469 391.597656 456.792969 393.710938 455.675781 395.800781 C 454.558594 397.890625 453.390625 399.949219 452.171875 401.980469 C 450.957031 404.015625 449.6875 406.015625 448.371094 407.984375 C 447.054688 409.953125 445.691406 411.890625 444.28125 413.792969 C 442.871094 415.695312 441.414062 417.5625 439.910156 419.390625 C 438.40625 421.222656 436.859375 423.015625 435.269531 424.769531 C 433.675781 426.527344 432.042969 428.242188 430.371094 429.914062 C 428.695312 431.589844 426.980469 433.222656 425.222656 434.8125 C 423.46875 436.40625 421.675781 437.953125 419.84375 439.453125 C 418.011719 440.957031 416.144531 442.414062 414.242188 443.824219 C 412.339844 445.234375 410.402344 446.597656 408.433594 447.914062 C 406.464844 449.230469 404.460938 450.496094 402.429688 451.714844 C 400.398438 452.933594 398.335938 454.101562 396.25 455.214844 C 394.160156 456.332031 392.042969 457.398438 389.902344 458.410156 C 387.761719 459.421875 385.59375 460.382812 383.40625 461.289062 C 381.21875 462.195312 379.007812 463.046875 376.777344 463.84375 C 374.546875 464.644531 372.296875 465.386719 370.03125 466.074219 C 367.761719 466.761719 365.480469 467.394531 363.183594 467.96875 C 360.882812 468.542969 358.574219 469.0625 356.25 469.523438 C 353.925781 469.988281 351.59375 470.390625 349.25 470.738281 C 346.90625 471.085938 344.554688 471.375 342.199219 471.609375 C 339.839844 471.839844 337.476562 472.015625 335.113281 472.132812 C 332.746094 472.246094 330.378906 472.304688 328.007812 472.304688 Z M 328.007812 472.304688 " fill-opacity="1" fill-rule="nonzero"/><path fill="#17e6a1" d="M 328.007812 182.847656 L 472.769531 182.847656 L 472.769531 327.578125 L 328.007812 327.578125 Z M 328.007812 182.847656 " fill-opacity="1" fill-rule="nonzero"/></svg>