<svg xmlns="http://www.w3.org/2000/svg" viewBox="0 0 355.05 212.92"><defs><style>.cls-1{fill:#6040ff;}</style></defs><g id="Layer_2" data-name="Layer 2"><g id="Layer_1-2" data-name="Layer 1"><path class="cls-1" d="M243.81,131.48l-24.35-20L199.6,125.38l-5.23,3.68-.9.64,30.87,25.42a15.23,15.23,0,0,1,4.52,5.91,15.74,15.74,0,0,1,.17,11.09,15,15,0,0,1-14.44,10.17H96.8l30.14-21.2,36.62-25.74,19.91-14,20.7-14.56,5.23-3.68L194.92,91.21l-10-8.27h0L165,96.91l-6.13,4.3L139,115.2,30.14,191.72,0,212.92H214.59a45.49,45.49,0,0,0,43.26-30.45c.37-1,.71-2.06,1-3.11A45.42,45.42,0,0,0,243.81,131.48Z"/><path class="cls-1" d="M164.08,0h-.18a45.47,45.47,0,0,0-43.25,30.42,46.22,46.22,0,0,0-2.22,8.69,45.4,45.4,0,0,0,16.35,42.41l16,13.12,6.14-4.31,19.88-14L154.19,57.81a16.11,16.11,0,0,1-3.88-4.53,15.4,15.4,0,0,1-.84-12.51,14.94,14.94,0,0,1,14.41-10.14H164l94.8.35L227.25,53.14,205.63,68.35,184.88,82.94h0L165,96.91l-6.13,4.3,2.06,1.69,22.57,18.48,20.7-14.56,5.23-3.68,20.76-14.59,93.39-65.67L355.05.72Z"/></g></g></svg>